<svg width="308" height="59" viewBox="0 0 308 59" fill="none" xmlns="http://www.w3.org/2000/svg">
<path d="M300.57 49.5622C299.554 49.5622 298.691 48.9022 298.387 47.9885L296.813 42.9121H283.361L281.787 47.9885C281.482 48.9022 280.619 49.5622 279.604 49.5622H274.071C273.157 49.5622 272.497 48.6484 272.802 47.7347L284.427 15.4995C284.731 14.6365 285.594 14.0273 286.559 14.0273H293.615C294.58 14.0273 295.443 14.6365 295.747 15.4995L307.321 47.7347C307.677 48.6484 307.017 49.5622 306.052 49.5622H300.57ZM285.442 36.3635H294.732L290.062 21.5404L285.442 36.3635Z" fill="#141621"/>
<path d="M260.179 49.5622C259.164 49.5622 258.301 48.9022 257.996 47.9885L256.423 42.9121H242.97L241.396 47.9885C241.092 48.9022 240.229 49.5622 239.214 49.5622H233.68C232.766 49.5622 232.107 48.6484 232.411 47.7347L244.036 15.4995C244.341 14.6365 245.204 14.0273 246.168 14.0273H253.224C254.189 14.0273 255.052 14.6365 255.356 15.4995L266.931 47.7347C267.286 48.6484 266.626 49.5622 265.662 49.5622H260.179ZM245.051 36.3635H254.341L249.671 21.5404L245.051 36.3635Z" fill="#141621"/>
<path d="M215.973 15.8548C215.973 14.8396 216.785 14.0273 217.801 14.0273H222.877C223.892 14.0273 224.705 14.8396 224.705 15.8548V47.7347C224.705 48.7499 223.892 49.5622 222.877 49.5622H217.801C216.785 49.5622 215.973 48.7499 215.973 47.7347V35.7544H203.079V47.7347C203.079 48.7499 202.267 49.5622 201.302 49.5622H196.175C195.211 49.5622 194.398 48.7499 194.398 47.7347V15.8548C194.398 14.8396 195.211 14.0273 196.175 14.0273H201.302C202.267 14.0273 203.079 14.8396 203.079 15.8548V27.5306H215.973V15.8548Z" fill="#141621"/>
<path d="M172.11 41.3384H183.938C184.954 41.3384 185.766 42.1506 185.766 43.1659V47.7347C185.766 48.7499 184.954 49.5622 183.938 49.5622H165.257C164.242 49.5622 163.43 48.7499 163.43 47.7347V15.8548C163.43 14.8396 164.242 14.0273 165.257 14.0273H183.481C184.497 14.0273 185.309 14.8396 185.309 15.8548V20.4236C185.309 21.3881 184.497 22.2004 183.481 22.2004H172.11V27.7336H181.857C182.872 27.7336 183.685 28.5459 183.685 29.5611V33.673C183.685 34.6883 182.872 35.5005 181.857 35.5005H172.11V41.3384Z" fill="#141621"/>
<path d="M141.142 41.3384H152.97C153.985 41.3384 154.797 42.1506 154.797 43.1659V47.7347C154.797 48.7499 153.985 49.5622 152.97 49.5622H134.288C133.273 49.5622 132.461 48.7499 132.461 47.7347V15.8548C132.461 14.8396 133.273 14.0273 134.288 14.0273H152.513C153.528 14.0273 154.34 14.8396 154.34 15.8548V20.4236C154.34 21.3881 153.528 22.2004 152.513 22.2004H141.142V27.7336H150.888C151.904 27.7336 152.716 28.5459 152.716 29.5611V33.673C152.716 34.6883 151.904 35.5005 150.888 35.5005H141.142V41.3384Z" fill="#141621"/>
<path d="M123.004 14.0273C124.02 14.0273 124.68 15.1442 124.172 16.0579L112.547 36.1605V47.7347C112.547 48.7499 111.735 49.5622 110.72 49.5622H105.643C104.628 49.5622 103.816 48.7499 103.816 47.7347V36.1605L92.1906 16.0579C91.683 15.1442 92.3429 14.0273 93.3582 14.0273H98.7392C99.7037 14.0273 100.668 14.5858 101.125 15.4995L108.181 29.1043L115.237 15.4995C115.694 14.5858 116.608 14.0273 117.623 14.0273H123.004Z" fill="#141621"/>
<path fill-rule="evenodd" clip-rule="evenodd" d="M72.0009 17.7031C72.0009 14.6109 68.8371 12.5276 65.9964 13.7494L48.2497 21.3823C46.67 22.0617 45.6463 23.6164 45.6463 25.336V30.7219H45.64V34.5007C45.64 43.5003 38.3444 50.7959 29.3448 50.7959C20.3452 50.7959 13.0496 43.5003 13.0496 34.5007V28.9576H14.4281C16.495 28.9576 18.1706 27.282 18.1706 25.2151C18.1706 23.1481 16.495 21.4726 14.4281 21.4726H4.18784C2.1209 21.4726 0.445312 23.1481 0.445312 25.2151C0.445312 27.282 2.1209 28.9576 4.18784 28.9576H5.56452V34.5007C5.56452 47.6342 16.2113 58.281 29.3448 58.281C42.186 58.281 52.6499 48.1029 53.1094 35.3739C53.1239 35.2398 53.1314 35.1035 53.1314 34.9654V27.4307L64.5158 22.5342V41.6579L61.4816 40.3529C59.5829 39.5362 57.3816 40.4134 56.5649 42.3122C55.7483 44.211 56.6255 46.4123 58.5242 47.2289L65.9964 50.4427C68.8371 51.6645 72.0009 49.5813 72.0009 46.489V17.7031Z" fill="#141621"/>
<circle cx="5.61906" cy="5.61906" r="5.61906" transform="matrix(-1 0 0 1 23.625 0.71875)" fill="#141621"/>
<path fill-rule="evenodd" clip-rule="evenodd" d="M45.8578 1.32719C46.5978 2.5705 46.1898 4.17828 44.9464 4.91827L42.5621 6.33738L44.9464 7.75647C46.1897 8.49646 46.5978 10.1042 45.8578 11.3476C45.1178 12.5909 43.51 12.9989 42.2667 12.2589L38.2613 9.87502C35.5796 8.27894 35.5796 4.39585 38.2613 2.79976L42.2667 0.415837C43.51 -0.32415 45.1178 0.0838759 45.8578 1.32719Z" fill="#141621"/>
</svg>
