<svg width="148" height="120" viewBox="0 0 148 120" fill="none" xmlns="http://www.w3.org/2000/svg">
<path fill-rule="evenodd" clip-rule="evenodd" d="M147.515 36.3576C147.515 29.9894 140.999 25.699 135.149 28.2152L98.6011 43.9347C95.3477 45.334 93.2395 48.5356 93.2395 52.0772V71.1807C93.1184 89.6112 78.1402 104.514 59.6812 104.514C41.147 104.514 26.1221 89.4896 26.1221 70.9554V59.5338H28.9607C33.2174 59.5338 36.6682 56.0831 36.6682 51.8263C36.6682 47.5696 33.2174 44.1188 28.9607 44.1188H7.87159C3.61484 44.1188 0.164062 47.5696 0.164062 51.8263C0.164062 56.0831 3.61484 59.5338 7.87159 59.5338H10.7071V70.9554C10.7071 98.0031 32.6335 119.93 59.6812 119.93C86.2063 119.93 107.806 98.8421 108.631 72.5172C108.647 72.3163 108.655 72.1133 108.655 71.9084V71.2275C108.655 71.1369 108.655 71.0462 108.655 70.9554V63.1734H108.655V56.391L132.1 46.3071V85.6911L125.851 83.0035C121.941 81.3216 117.408 83.1282 115.726 87.0386C114.044 90.949 115.85 95.4824 119.761 97.1643L135.149 103.783C140.999 106.299 147.515 102.009 147.515 95.6405V36.3576Z" fill="#FCF5EA"/>
<circle cx="11.5721" cy="11.5721" r="11.5721" transform="matrix(-1 0 0 1 47.8906 1.38281)" fill="#FCF5EA"/>
<path fill-rule="evenodd" clip-rule="evenodd" d="M93.6773 2.63673C95.2013 5.19726 94.361 8.50839 91.8004 10.0323L86.89 12.9549L91.8004 15.8775C94.3609 17.4014 95.2013 20.7125 93.6773 23.2731C92.1534 25.8336 88.8422 26.6739 86.2817 25.15L78.0328 20.2405C72.5099 16.9535 72.5099 8.95646 78.0327 5.6694L86.2817 0.759855C88.8422 -0.764104 92.1533 0.0762012 93.6773 2.63673Z" fill="#FCF5EA"/>
</svg>
