<svg width="308" height="59" viewBox="0 0 308 59" fill="none" xmlns="http://www.w3.org/2000/svg">
<path d="M300.476 49.5622C299.461 49.5622 298.598 48.9022 298.293 47.9885L296.719 42.9121H283.267L281.693 47.9885C281.389 48.9022 280.526 49.5622 279.51 49.5622H273.977C273.063 49.5622 272.403 48.6484 272.708 47.7347L284.333 15.4995C284.638 14.6365 285.501 14.0273 286.465 14.0273H293.521C294.486 14.0273 295.349 14.6365 295.653 15.4995L307.228 47.7347C307.583 48.6484 306.923 49.5622 305.958 49.5622H300.476ZM285.348 36.3635H294.638L289.968 21.5404L285.348 36.3635Z" fill="#FCF5EA"/>
<path d="M260.085 49.5622C259.07 49.5622 258.207 48.9022 257.902 47.9885L256.329 42.9121H242.876L241.303 47.9885C240.998 48.9022 240.135 49.5622 239.12 49.5622H233.586C232.673 49.5622 232.013 48.6484 232.317 47.7347L243.942 15.4995C244.247 14.6365 245.11 14.0273 246.074 14.0273H253.131C254.095 14.0273 254.958 14.6365 255.263 15.4995L266.837 47.7347C267.192 48.6484 266.532 49.5622 265.568 49.5622H260.085ZM244.958 36.3635H254.247L249.577 21.5404L244.958 36.3635Z" fill="#FCF5EA"/>
<path d="M215.879 15.8548C215.879 14.8396 216.692 14.0273 217.707 14.0273H222.783C223.799 14.0273 224.611 14.8396 224.611 15.8548V47.7347C224.611 48.7499 223.799 49.5622 222.783 49.5622H217.707C216.692 49.5622 215.879 48.7499 215.879 47.7347V35.7544H202.985V47.7347C202.985 48.7499 202.173 49.5622 201.209 49.5622H196.081C195.117 49.5622 194.305 48.7499 194.305 47.7347V15.8548C194.305 14.8396 195.117 14.0273 196.081 14.0273H201.209C202.173 14.0273 202.985 14.8396 202.985 15.8548V27.5306H215.879V15.8548Z" fill="#FCF5EA"/>
<path d="M172.017 41.3384H183.845C184.86 41.3384 185.672 42.1506 185.672 43.1659V47.7347C185.672 48.7499 184.86 49.5622 183.845 49.5622H165.163C164.148 49.5622 163.336 48.7499 163.336 47.7347V15.8548C163.336 14.8396 164.148 14.0273 165.163 14.0273H183.388C184.403 14.0273 185.215 14.8396 185.215 15.8548V20.4236C185.215 21.3881 184.403 22.2004 183.388 22.2004H172.017V27.7336H181.763C182.779 27.7336 183.591 28.5459 183.591 29.5611V33.673C183.591 34.6883 182.779 35.5005 181.763 35.5005H172.017V41.3384Z" fill="#FCF5EA"/>
<path d="M141.048 41.3384H152.876C153.891 41.3384 154.703 42.1506 154.703 43.1659V47.7347C154.703 48.7499 153.891 49.5622 152.876 49.5622H134.195C133.179 49.5622 132.367 48.7499 132.367 47.7347V15.8548C132.367 14.8396 133.179 14.0273 134.195 14.0273H152.419C153.434 14.0273 154.246 14.8396 154.246 15.8548V20.4236C154.246 21.3881 153.434 22.2004 152.419 22.2004H141.048V27.7336H150.795C151.81 27.7336 152.622 28.5459 152.622 29.5611V33.673C152.622 34.6883 151.81 35.5005 150.795 35.5005H141.048V41.3384Z" fill="#FCF5EA"/>
<path d="M122.911 14.0273C123.926 14.0273 124.586 15.1442 124.078 16.0579L112.453 36.1605V47.7347C112.453 48.7499 111.641 49.5622 110.626 49.5622H105.549C104.534 49.5622 103.722 48.7499 103.722 47.7347V36.1605L92.0969 16.0579C91.5892 15.1442 92.2492 14.0273 93.2644 14.0273H98.6454C99.61 14.0273 100.574 14.5858 101.031 15.4995L108.088 29.1043L115.144 15.4995C115.601 14.5858 116.514 14.0273 117.53 14.0273H122.911Z" fill="#FCF5EA"/>
<path fill-rule="evenodd" clip-rule="evenodd" d="M71.9071 17.7031C71.9071 14.6109 68.7433 12.5276 65.9027 13.7494L48.156 21.3823C46.5763 22.0617 45.5526 23.6164 45.5526 25.336V30.7219H45.5463V34.5007C45.5463 43.5003 38.2507 50.7959 29.2511 50.7959C20.2515 50.7959 12.9558 43.5003 12.9558 34.5007V28.9576H14.3343C16.4012 28.9576 18.0768 27.282 18.0768 25.2151C18.0768 23.1481 16.4012 21.4726 14.3343 21.4726H4.09409C2.02715 21.4726 0.351562 23.1481 0.351562 25.2151C0.351562 27.282 2.02715 28.9576 4.09409 28.9576H5.47077V34.5007C5.47077 47.6342 16.1176 58.281 29.2511 58.281C42.0922 58.281 52.5561 48.1029 53.0156 35.3739C53.0302 35.2398 53.0377 35.1035 53.0377 34.9654V27.4307L64.4221 22.5342V41.6579L61.3879 40.3529C59.4891 39.5362 57.2878 40.4134 56.4712 42.3122C55.6545 44.211 56.5317 46.4123 58.4305 47.2289L65.9027 50.4427C68.7433 51.6645 71.9071 49.5813 71.9071 46.489V17.7031Z" fill="#FCF5EA"/>
<circle cx="5.61906" cy="5.61906" r="5.61906" transform="matrix(-1 0 0 1 23.5312 0.71875)" fill="#FCF5EA"/>
<path fill-rule="evenodd" clip-rule="evenodd" d="M45.764 1.32719C46.504 2.5705 46.096 4.17828 44.8527 4.91827L42.4683 6.33738L44.8527 7.75647C46.096 8.49646 46.504 10.1042 45.764 11.3476C45.0241 12.5909 43.4163 12.9989 42.173 12.2589L38.1675 9.87502C35.4858 8.27894 35.4858 4.39585 38.1675 2.79976L42.173 0.415837C43.4163 -0.32415 45.0241 0.0838759 45.764 1.32719Z" fill="#FCF5EA"/>
</svg>
