<svg width="148" height="121" viewBox="0 0 148 121" fill="none" xmlns="http://www.w3.org/2000/svg">
<path fill-rule="evenodd" clip-rule="evenodd" d="M147.765 37.0529C147.765 30.6847 141.249 26.3943 135.399 28.9105L98.8511 44.63C95.5977 46.0293 93.4895 49.2309 93.4895 52.7725V71.876C93.3684 90.3065 78.3902 105.21 59.9312 105.21C41.397 105.21 26.3721 90.1849 26.3721 71.6507V60.2291H29.2107C33.4674 60.2291 36.9182 56.7784 36.9182 52.5216C36.9182 48.2649 33.4674 44.8141 29.2107 44.8141H8.12159C3.86484 44.8141 0.414062 48.2649 0.414062 52.5216C0.414062 56.7784 3.86484 60.2291 8.12159 60.2291H10.9571V71.6507C10.9571 98.6984 32.8835 120.625 59.9312 120.625C86.4563 120.625 108.056 99.5374 108.881 73.2125C108.897 73.0116 108.905 72.8086 108.905 72.6037V71.9229C108.905 71.8322 108.905 71.7415 108.905 71.6507V63.8687H108.905V57.0864L132.35 47.0024V86.3864L126.101 83.6988C122.191 82.0169 117.658 83.8235 115.976 87.7339C114.294 91.6443 116.1 96.1777 120.011 97.8596L135.399 104.478C141.249 106.994 147.765 102.704 147.765 96.3358V37.0529Z" fill="#F1DEC1"/>
<circle cx="11.5721" cy="11.5721" r="11.5721" transform="matrix(-1 0 0 1 48.1406 2.07812)" fill="#F1DEC1"/>
<path fill-rule="evenodd" clip-rule="evenodd" d="M93.9273 3.33204C95.4513 5.89257 94.611 9.2037 92.0504 10.7277L87.14 13.6502L92.0504 16.5728C94.6109 18.0967 95.4513 21.4079 93.9273 23.9684C92.4034 26.5289 89.0922 27.3692 86.5317 25.8453L78.2828 20.9358C72.7599 17.6488 72.7599 9.65177 78.2827 6.36472L86.5317 1.45517C89.0922 -0.0687915 92.4033 0.771514 93.9273 3.33204Z" fill="#F1DEC1"/>
</svg>
