<svg width="149" height="120" viewBox="0 0 149 120" fill="none" xmlns="http://www.w3.org/2000/svg">
<path fill-rule="evenodd" clip-rule="evenodd" d="M148.32 36.3576C148.32 29.9894 141.804 25.699 135.954 28.2152L99.4057 43.9347C96.1524 45.334 94.0442 48.5356 94.0442 52.0772V71.1807C93.923 89.6112 78.9449 104.514 60.4859 104.514C41.9517 104.514 26.9268 89.4896 26.9268 70.9554V59.5338H29.7654C34.0221 59.5338 37.4729 56.0831 37.4729 51.8263C37.4729 47.5696 34.0221 44.1188 29.7654 44.1188H8.67627C4.41953 44.1188 0.96875 47.5696 0.96875 51.8263C0.96875 56.0831 4.41953 59.5338 8.67627 59.5338H11.5118V70.9554C11.5118 98.0031 33.4382 119.93 60.4859 119.93C87.011 119.93 108.611 98.8421 109.436 72.5172C109.451 72.3163 109.459 72.1133 109.459 71.9084V71.2275C109.46 71.1369 109.46 71.0462 109.46 70.9554V63.1734H109.459V56.391L132.905 46.3071V85.6911L126.656 83.0035C122.746 81.3216 118.212 83.1282 116.53 87.0386C114.848 90.949 116.655 95.4824 120.565 97.1643L135.954 103.783C141.804 106.299 148.32 102.009 148.32 95.6405V36.3576Z" fill="#E5A94F"/>
<circle cx="11.5721" cy="11.5721" r="11.5721" transform="matrix(-1 0 0 1 48.6953 1.38281)" fill="#E5A94F"/>
<path fill-rule="evenodd" clip-rule="evenodd" d="M94.482 2.63673C96.0059 5.19726 95.1656 8.50839 92.6051 10.0323L87.6947 12.9549L92.6051 15.8775C95.1656 17.4014 96.0059 20.7125 94.482 23.2731C92.958 25.8336 89.6469 26.6739 87.0864 25.15L78.8375 20.2405C73.3146 16.9535 73.3146 8.95646 78.8374 5.6694L87.0864 0.759855C89.6469 -0.764104 92.958 0.0762012 94.482 2.63673Z" fill="#E5A94F"/>
</svg>
