<svg width="28" height="26" viewBox="0 0 28 26" fill="none" xmlns="http://www.w3.org/2000/svg">
<path fill-rule="evenodd" clip-rule="evenodd" d="M0.164129 12.8048C0.164092 11.7002 1.05953 10.8047 2.16413 10.8047L22.3523 10.8047C23.4569 10.8047 24.3523 11.7001 24.3523 12.8047C24.3523 13.9093 23.4569 14.8047 22.3523 14.8047L2.16413 14.8047C1.05959 14.8047 0.164166 13.9093 0.164129 12.8048V12.8048Z" fill="#1FA59D"/>
<path fill-rule="evenodd" clip-rule="evenodd" d="M12.7967 1.16782C13.5778 0.386769 14.8441 0.386769 15.6252 1.16782L25.8478 11.3905C26.6289 12.1715 26.6289 13.4379 25.8478 14.2189L15.6252 24.4416C14.8441 25.2226 13.5778 25.2226 12.7967 24.4416C12.0157 23.6605 12.0157 22.3942 12.7967 21.6131L21.6052 12.8047L12.7967 3.99624C12.0157 3.2152 12.0157 1.94887 12.7967 1.16782Z" fill="#1FA59D"/>
</svg>
