<svg width="65" height="40" viewBox="0 0 65 40" fill="none" xmlns="http://www.w3.org/2000/svg">
<path fill-rule="evenodd" clip-rule="evenodd" d="M1.6471 1.59631C3.0776 0.165812 5.3969 0.165812 6.8274 1.59631L23.0577 17.8266C24.2293 18.9982 24.2293 20.8977 23.0577 22.0693L6.8274 38.2996C5.3969 39.7301 3.0776 39.7301 1.6471 38.2996C0.216593 36.8691 0.216593 34.5498 1.6471 33.1193L14.1113 20.655C14.5018 20.2645 14.5018 19.6314 14.1113 19.2408L1.6471 6.77662C0.216593 5.34612 0.216593 3.02682 1.6471 1.59631Z" fill="#E5A94F"/>
<path fill-rule="evenodd" clip-rule="evenodd" d="M21.5612 1.59631C22.9917 0.165812 25.311 0.165812 26.7415 1.59631L42.9718 17.8266C44.1433 18.9982 44.1433 20.8977 42.9718 22.0693L26.7415 38.2996C25.311 39.7301 22.9917 39.7301 21.5612 38.2996C20.1307 36.8691 20.1307 34.5498 21.5612 33.1193L34.0254 20.655C34.4159 20.2645 34.4159 19.6314 34.0254 19.2408L21.5612 6.77662C20.1307 5.34612 20.1307 3.02682 21.5612 1.59631Z" fill="#E5A94F"/>
<path fill-rule="evenodd" clip-rule="evenodd" d="M41.4713 1.59631C42.9018 0.165812 45.2211 0.165812 46.6516 1.59631L62.8819 17.8266C64.0535 18.9982 64.0535 20.8977 62.8819 22.0693L46.6516 38.2996C45.2211 39.7301 42.9018 39.7301 41.4713 38.2996C40.0408 36.8691 40.0408 34.5498 41.4713 33.1193L53.9355 20.655C54.3261 20.2645 54.3261 19.6314 53.9355 19.2408L41.4713 6.77662C40.0408 5.34612 40.0408 3.02682 41.4713 1.59631Z" fill="#E5A94F"/>
</svg>
