<svg width="118" height="107" viewBox="0 0 118 107" fill="none" xmlns="http://www.w3.org/2000/svg">
<path d="M10.6986 90.5577L13.8432 103.132L64.7669 105.019L72.9398 98.313L77.1311 90.5577L82.9989 84.9009V76.7279L94.1058 77.7757L109.404 90.5577L116.319 86.5774V38.7976L109.404 35.4439L97.6683 44.8743L84.885 48.6464L82.9989 44.8743L79.2267 33.349L61.4139 32.0893L62.4617 21.194L79.2267 22.451L93.0579 17.8406L94.1058 9.66632L88.238 2.75H49.6783L42.7627 6.10342V15.3242L49.6783 21.194V33.349L27.255 32.0893L31.8654 23.9163L30.608 15.3242L23.0638 9.66632H13.8432L7.9752 21.194L13.8432 30.6215L7.9752 33.349L3.78393 38.7976L2.31641 83.8522L10.6986 90.5577Z" fill="#E5A94F"/>
<circle cx="21.5156" cy="20.9805" r="12.0312" fill="#E5734F"/>
<circle cx="16.5312" cy="45.875" r="4.98438" fill="#E5734F"/>
<circle cx="16.5312" cy="63.7227" r="4.98438" fill="#E5734F"/>
<path d="M41.5938 9.75391L50.2031 2.97656L59.3626 3.70751H78.5975L91.2376 7.00492L94.3518 12.6838C92.8252 14.9431 89.6622 19.4618 89.2225 19.4618C88.7828 19.4618 82.5666 21.7822 79.5134 22.9424L49.0124 20.6525L43.2419 16.8056L41.5938 9.75391Z" fill="#E5734F"/>
<path d="M50.625 32.211V22.3711H51.445L63.0624 21.2773V32.211H50.625Z" fill="#E5734F"/>
<rect x="31.5469" y="42.5391" width="43.7891" height="38.9961" fill="#1FA59D"/>
<path d="M40.4315 52.396H49.7792L60.9746 51.4727L66.5151 58.052L61.7826 65.6702L51.5096 72.365L47.8159 71.3261L39.8514 62.3228L37.6602 56.436L40.4315 52.396Z" fill="#E5734F"/>
<path fill-rule="evenodd" clip-rule="evenodd" d="M85.55 0.1875H50.15C43.6305 0.1875 38.35 5.47794 38.35 12.0097C38.35 17.5071 42.0965 22.1473 47.2 23.4477V29.7431H32.45C34.3085 27.2604 35.4 24.2162 35.4 20.8764C35.4 12.7191 28.792 6.09861 20.65 6.09861C12.508 6.09861 5.9 12.7191 5.9 20.8764C5.9 24.3344 7.1095 27.5264 9.086 30.0682C6.962 30.5706 5.015 31.6642 3.4515 33.2306C1.239 35.4473 0 38.4619 0 41.5948V82.9726C0 86.1055 1.239 89.1202 3.4515 91.3368C4.956 92.8442 6.8145 93.9082 8.85 94.4106V97.7504C8.85 102.657 12.803 106.617 17.7 106.617H67.85C72.747 106.617 76.7 102.657 76.7 97.7504V94.4106C78.7355 93.8786 80.594 92.8442 82.0985 91.3368C84.311 89.1202 85.55 86.1055 85.55 82.9726V80.0171H93.3675L106.259 90.3319C107.469 91.3073 108.973 91.8393 110.507 91.8393C114.637 91.8393 118 88.4699 118 84.3322V40.2057C118 36.0679 114.637 32.6986 110.507 32.6986C108.973 32.6986 107.469 33.2306 106.259 34.2059L93.3675 44.5208H85.55V41.5653C85.55 38.4324 84.311 35.4177 82.0985 33.2011C79.886 30.9844 76.877 29.7431 73.75 29.7431H64.9V23.8319H85.55C92.0695 23.8319 97.35 18.5415 97.35 12.0097C97.35 5.47794 92.0695 0.1875 85.55 0.1875ZM70.8 94.7653V97.7208C70.8 99.3464 69.4725 100.676 67.85 100.676H17.7C16.0775 100.676 14.75 99.3464 14.75 97.7208V94.7653H70.8ZM11.8 35.6542H73.75C75.3135 35.6542 76.818 36.2748 77.9095 37.3979C79.0305 38.4915 79.65 39.9988 79.65 41.5653V82.9431C79.65 84.5095 79.0305 86.0168 77.9095 87.1104C76.818 88.2335 75.3135 88.8542 73.75 88.8542H11.8C10.2365 88.8542 8.732 88.2335 7.6405 87.1104C6.5195 86.0168 5.9 84.5095 5.9 82.9431V41.5653C5.9 39.9988 6.5195 38.4915 7.6405 37.3979C8.732 36.2748 10.2365 35.6542 11.8 35.6542ZM97.35 75.6133V48.8951L109.947 38.8166C110.124 38.6984 110.3 38.6097 110.507 38.6097C111.392 38.6097 112.1 39.3191 112.1 40.2057V84.3026C112.1 85.1893 111.392 85.8986 110.507 85.8986C110.3 85.8986 110.094 85.8395 109.947 85.6917L97.35 75.6133ZM76.7 41.5653C76.7 39.9397 75.3725 38.6097 73.75 38.6097H29.5C27.8775 38.6097 26.55 39.9397 26.55 41.5653V79.9875C26.55 81.6131 27.8775 82.9431 29.5 82.9431H73.75C75.3725 82.9431 76.7 81.6131 76.7 79.9875V41.5653ZM70.8 44.5208V77.0319H32.45V44.5208H70.8ZM51.625 49.7522C47.5245 46.7079 41.7425 46.9739 38.586 49.5157C34.8395 52.5599 34.1905 58.5893 37.9075 64.6482C40.0905 68.4017 45.5775 72.2735 50.209 74.7857C51.094 75.2586 52.1265 75.2586 53.0115 74.7857C57.6725 72.2735 63.1595 68.3722 65.3425 64.6186C69.03 58.5893 68.381 52.5599 64.6345 49.5157C61.478 46.9444 55.696 46.7079 51.5955 49.7522H51.625ZM85.55 50.4319H91.45V74.0764H85.55V50.4319ZM16.225 56.3431C12.154 56.3431 8.85 59.6533 8.85 63.7319C8.85 67.8106 12.154 71.1208 16.225 71.1208C20.296 71.1208 23.6 67.8106 23.6 63.7319C23.6 59.6533 20.296 56.3431 16.225 56.3431ZM49.206 55.6337C49.7665 56.4317 50.6515 56.9046 51.625 56.9046C52.5985 56.9046 53.4835 56.4317 54.044 55.6337C55.7845 53.1215 59.2065 52.7077 60.947 54.1264C61.655 54.7175 61.95 55.6042 61.95 56.6386C61.95 58.1459 61.36 59.8602 60.298 61.6039C60.298 61.6039 60.2685 61.6631 60.2685 61.6926C58.7345 64.3526 55.047 66.8944 51.6545 68.8451C48.262 66.8944 44.545 64.3526 43.0405 61.6926C43.0405 61.6926 43.011 61.6335 43.011 61.6039C41.949 59.8602 41.359 58.1755 41.359 56.6386C41.359 55.6042 41.654 54.7175 42.362 54.1264C44.1025 52.7077 47.5245 53.1511 49.265 55.6337H49.206ZM16.225 62.2542C17.051 62.2542 17.7 62.9044 17.7 63.7319C17.7 64.5595 17.051 65.2097 16.225 65.2097C15.399 65.2097 14.75 64.5595 14.75 63.7319C14.75 62.9044 15.399 62.2542 16.225 62.2542ZM16.225 38.6097C12.154 38.6097 8.85 41.9199 8.85 45.9986C8.85 50.0773 12.154 53.3875 16.225 53.3875C20.296 53.3875 23.6 50.0773 23.6 45.9986C23.6 41.9199 20.296 38.6097 16.225 38.6097ZM16.225 44.5208C17.051 44.5208 17.7 45.1711 17.7 45.9986C17.7 46.8262 17.051 47.4764 16.225 47.4764C15.399 47.4764 14.75 46.8262 14.75 45.9986C14.75 45.1711 15.399 44.5208 16.225 44.5208ZM53.1 29.7431H59V23.8319H53.1V29.7431ZM20.65 12.0097C25.547 12.0097 29.5 15.9702 29.5 20.8764C29.5 25.7826 25.547 29.7431 20.65 29.7431C15.753 29.7431 11.8 25.7826 11.8 20.8764C11.8 15.9702 15.753 12.0097 20.65 12.0097ZM20.65 17.9208C22.2725 17.9208 23.6 19.2508 23.6 20.8764C23.6 22.5019 22.2725 23.8319 20.65 23.8319C19.0275 23.8319 17.7 22.5019 17.7 20.8764C17.7 19.2508 19.0275 17.9208 20.65 17.9208ZM64.9 6.09861V17.9208H50.15C46.905 17.9208 44.25 15.2608 44.25 12.0097C44.25 8.75861 46.905 6.09861 50.15 6.09861H64.9ZM70.8 6.09861H85.55C88.795 6.09861 91.45 8.75861 91.45 12.0097C91.45 15.2608 88.795 17.9208 85.55 17.9208H70.8V6.09861Z" fill="#141621"/>
</svg>
