<svg width="108" height="102" viewBox="0 0 108 102" fill="none" xmlns="http://www.w3.org/2000/svg">
<path d="M5.45312 11.0859C5.45312 7.77223 8.13942 5.08594 11.4531 5.08594H97.657C100.971 5.08594 103.657 7.77223 103.657 11.0859V91.002C103.657 94.3157 100.971 97.002 97.6569 97.002H11.4531C8.13941 97.002 5.45312 94.3157 5.45312 91.002V11.0859Z" fill="#E5A94F"/>
<path fill-rule="evenodd" clip-rule="evenodd" d="M90.8958 6.95054H17.0847C11.1749 6.95054 6.38413 11.7413 6.38413 17.6511V84.6549C6.38413 90.5647 11.1749 95.3555 17.0847 95.3555H90.8958C96.8055 95.3555 101.596 90.5647 101.596 84.6549V17.6511C101.596 11.7413 96.8055 6.95054 90.8958 6.95054ZM17.0847 0.835938C7.79793 0.835938 0.269531 8.36434 0.269531 17.6511V84.6549C0.269531 93.9417 7.79793 101.47 17.0847 101.47H90.8958C100.183 101.47 107.711 93.9417 107.711 84.6549V17.6511C107.711 8.36434 100.183 0.835938 90.8958 0.835938H17.0847Z" fill="#141621"/>
<path fill-rule="evenodd" clip-rule="evenodd" d="M29.2128 5.08594L34.3073 10.1804L42.3344 18.2075C43.5283 19.4015 43.5283 21.3373 42.3344 22.5312L34.3073 30.5583L29.2128 35.6528L17.6328 34.2617L31.5252 20.3694L17.6328 6.47698L29.2128 5.08594Z" fill="#141621"/>
<path fill-rule="evenodd" clip-rule="evenodd" d="M54.4355 5.08594L59.5299 10.1804L67.557 18.2075C68.751 19.4015 68.751 21.3373 67.557 22.5312L59.5299 30.5583L54.4355 35.6528L42.8555 34.2617L56.7479 20.3694L42.8555 6.47698L54.4355 5.08594Z" fill="#141621"/>
<path fill-rule="evenodd" clip-rule="evenodd" d="M80.369 5.08594L85.4635 10.1804L93.4906 18.2075C94.6846 19.4015 94.6846 21.3373 93.4906 22.5312L85.4635 30.5583L80.369 35.6528L68.7891 34.2617L82.6814 20.3694L68.7891 6.47698L80.369 5.08594Z" fill="#141621"/>
<path fill-rule="evenodd" clip-rule="evenodd" d="M1.42188 36.7526C1.42188 35.0641 2.79067 33.6953 4.47918 33.6953H104.54C106.229 33.6953 107.597 35.0641 107.597 36.7526C107.597 38.4411 106.229 39.8099 104.54 39.8099H4.47918C2.79067 39.8099 1.42188 38.4411 1.42188 36.7526Z" fill="#141621"/>
<path fill-rule="evenodd" clip-rule="evenodd" d="M16.9219 54.6315C16.9219 52.943 18.2907 51.5742 19.9792 51.5742H88.6908C90.3793 51.5742 91.7481 52.943 91.7481 54.6315C91.7481 56.32 90.3793 57.6888 88.6908 57.6888H19.9792C18.2907 57.6888 16.9219 56.32 16.9219 54.6315Z" fill="#141621"/>
<path fill-rule="evenodd" clip-rule="evenodd" d="M16.9219 72.4675C16.9219 70.779 18.2907 69.4102 19.9792 69.4102H88.6908C90.3793 69.4102 91.7481 70.779 91.7481 72.4675C91.7481 74.156 90.3793 75.5248 88.6908 75.5248H19.9792C18.2907 75.5248 16.9219 74.156 16.9219 72.4675Z" fill="#141621"/>
<path fill-rule="evenodd" clip-rule="evenodd" d="M35.8711 20.3698C35.8711 18.6813 37.2399 17.3125 38.9284 17.3125L103.657 17.3125C105.346 17.3125 106.714 18.6813 106.714 20.3698C106.714 22.0583 105.346 23.4271 103.657 23.4271L38.9284 23.4271C37.2399 23.4271 35.8711 22.0583 35.8711 20.3698Z" fill="#141621"/>
</svg>
