<svg width="91" height="77" viewBox="0 0 91 77" fill="none" xmlns="http://www.w3.org/2000/svg">
<path d="M80.6657 10.0393C72.6764 2.22139 59.861 2.27425 51.9407 10.1946L51.9407 10.1947L48.6321 13.5033L45.8037 16.3317L42.9753 13.5033L39.6667 10.1947C31.6942 2.22226 18.7625 2.22107 10.7851 10.1941C10.7847 10.1945 10.7843 10.1949 10.784 10.1952M80.6657 10.0393L10.784 10.1952M80.6657 10.0393L80.8215 10.1951C88.7957 18.1724 88.7949 31.105 80.8221 39.0778L47.9241 71.9758L47.924 71.9759C46.7518 73.1481 44.8548 73.1481 43.6825 71.9758L43.6824 71.9757L10.7851 39.0814M80.6657 10.0393L10.7851 39.0814M10.784 10.1952C2.81144 18.1722 2.81161 31.104 10.7844 39.0807M10.784 10.1952L10.7844 39.0807M10.7844 39.0807C10.7846 39.0809 10.7848 39.0812 10.7851 39.0814M10.7844 39.0807L10.7851 39.0814" fill="#E5734F" stroke="#141621" stroke-width="8"/>
</svg>
