<svg width="102" height="103" viewBox="0 0 102 103" fill="none" xmlns="http://www.w3.org/2000/svg">
<rect x="3.66406" y="4.03125" width="94.2344" height="95.3279" rx="24.5" fill="#E5A94F" stroke="#141621" stroke-width="7"/>
<path d="M31.1133 26.7194C31.1133 30.5167 34.1916 33.595 37.9889 33.595C41.7862 33.595 44.8645 30.5167 44.8645 26.7194C44.8645 22.9221 41.7862 19.8438 37.9889 19.8438C34.1916 19.8438 31.1133 22.9221 31.1133 26.7194Z" fill="#141621"/>
<path fill-rule="evenodd" clip-rule="evenodd" d="M69.4106 23.2429C70.6121 22.5278 71.0064 20.974 70.2913 19.7725C69.5762 18.5709 68.0224 18.1766 66.8209 18.8917L60.0788 22.9044C57.1927 24.6221 57.1927 28.8012 60.0789 30.5189L66.8209 34.5316C68.0224 35.2467 69.5762 34.8524 70.2913 33.6508C71.0064 32.4493 70.6121 30.8955 69.4106 30.1804L63.5824 26.7117L69.4106 23.2429ZM37.7541 44.6347C37.7541 42.5373 36.0538 40.8371 33.9564 40.8371H22.4109C20.3135 40.8371 18.6133 42.5373 18.6133 44.6347C18.6133 46.7321 20.3135 48.4323 22.4109 48.4323H24.3887V58.4642C24.3887 73.0388 36.2038 84.8538 50.7783 84.8538C65.3529 84.8538 77.1679 73.0388 77.1679 58.4642V48.4323H79.1417C81.2391 48.4323 82.9393 46.7321 82.9393 44.6347C82.9393 42.5373 81.2391 40.8371 79.1417 40.8371H67.5962C65.4988 40.8371 63.7986 42.5373 63.7986 44.6347C63.7986 46.7321 65.4988 48.4323 67.5962 48.4323H69.5727V58.4642C69.5727 68.8441 61.1582 77.2586 50.7783 77.2586C40.3985 77.2586 31.984 68.8441 31.984 58.4642V48.4323H33.9564C36.0538 48.4323 37.7541 46.7321 37.7541 44.6347Z" fill="#141621"/>
</svg>
