<svg width="215" height="114" viewBox="0 0 215 114" fill="none" xmlns="http://www.w3.org/2000/svg">
<path d="M100.002 29.8867L106.154 9.88672L120 29.8867L140 33.0797L125.063 49.8867V69.8867L106.154 62.8654L86.7671 72.7939L90 49.8867L74.9492 33.0797L100.002 29.8867Z" fill="#E5A94F"/>
<path d="M24.727 76.5667L28.3849 64.6758L36.6169 76.5667L48.5078 78.4651L39.6271 88.4577V100.349L28.3849 96.1741L16.8583 102.077L18.7804 88.4577L9.83203 78.4651L24.727 76.5667Z" fill="#E5734F"/>
<path d="M180.625 76.5667L184.283 64.6758L192.515 76.5667L204.406 78.4651L195.526 88.4577V100.349L184.283 96.1741L172.757 102.077L174.679 88.4577L165.73 78.4651L180.625 76.5667Z" fill="#1FA59D"/>
<path d="M98.1899 27.1324L107.119 9.63563L116.048 27.1324C117.065 29.1255 118.974 30.5122 121.184 30.8636L140.584 33.949L126.702 47.848C125.121 49.4312 124.392 51.6749 124.741 53.8852L127.801 73.2889L110.293 64.3821L108.479 67.9473L110.293 64.3821C108.299 63.3675 105.94 63.3675 103.945 64.3821L105.759 67.9473L103.945 64.3821L86.437 73.2888L89.4974 53.8852C89.8461 51.6749 89.117 49.4312 87.5358 47.848L73.6547 33.949L93.0544 30.8636C95.2642 30.5122 97.1728 29.1255 98.1899 27.1324Z" stroke="#141621" stroke-width="8"/>
<path d="M200.038 88.0824L197.465 85.5129L204.442 78.5275L194.692 76.9769C192.482 76.6254 190.573 75.2387 189.556 73.2457L185.068 64.452L180.581 73.2457C179.564 75.2387 177.655 76.6254 175.445 76.9769L165.695 78.5275L172.672 85.5129C174.253 87.0962 174.982 89.3399 174.633 91.5501L173.095 101.302L181.894 96.8257C183.889 95.8112 186.248 95.8112 188.242 96.8257L197.042 101.302L195.504 91.5501C195.155 89.3399 195.884 87.0962 197.465 85.513L200.038 88.0824ZM200.038 88.0824L200.16 88.2049L200.038 88.0824ZM185.068 62.2521L185.959 62.7067C185.959 62.7072 185.959 62.7076 185.958 62.7081L185.959 62.7067L185.068 62.2521ZM185.068 62.2521L184.178 62.7067C184.178 62.7071 184.178 62.7076 184.178 62.708L184.178 62.7067L185.068 62.2521ZM198.788 102.191L198.786 102.19L198.788 102.191Z" stroke="#141621" stroke-width="8"/>
<path d="M44.1395 88.0824L41.5667 85.5129L48.5432 78.5275L38.7931 76.9769C36.5833 76.6254 34.6747 75.2387 33.6576 73.2457L29.1699 64.452L24.6822 73.2457C23.6651 75.2387 21.7565 76.6254 19.5467 76.9769L9.79668 78.5275L16.7732 85.5129C18.3543 87.0962 19.0834 89.3399 18.7348 91.5501L17.1966 101.302L25.996 96.8257C27.9903 95.8112 30.3495 95.8112 32.3439 96.8257L41.1432 101.302L39.6051 91.5501C39.2565 89.3399 39.9855 87.0962 41.5667 85.513L44.1395 88.0824ZM44.1395 88.0824L44.2621 88.2049L44.1395 88.0824ZM29.1699 62.2521L30.0606 62.7067C30.0604 62.7072 30.0601 62.7076 30.0599 62.7081L30.0606 62.7067L29.1699 62.2521ZM29.1699 62.2521L28.2792 62.7067C28.2794 62.7071 28.2797 62.7076 28.2799 62.708L28.2792 62.7067L29.1699 62.2521ZM42.8897 102.191L42.888 102.19L42.8897 102.191Z" stroke="#141621" stroke-width="8"/>
</svg>
